<svg width="1024" height="1024" viewBox="0 0 256 256" fill="none" xmlns="http://www.w3.org/2000/svg">
  <defs>
    <linearGradient id="dotfuel-bg" x1="34" y1="26" x2="220" y2="238" gradientUnits="userSpaceOnUse">
      <stop stop-color="#F4C27A"/>
      <stop offset="0.42" stop-color="#D76734"/>
      <stop offset="1" stop-color="#6C2412"/>
    </linearGradient>
    <radialGradient id="dotfuel-glow" cx="0" cy="0" r="1" gradientUnits="userSpaceOnUse" gradientTransform="translate(185 72) rotate(123.111) scale(82.7069)">
      <stop stop-color="#F7E3C4"/>
      <stop offset="1" stop-color="#F7E3C4" stop-opacity="0"/>
    </radialGradient>
    <linearGradient id="dotfuel-core" x1="103" y1="75" x2="156" y2="206" gradientUnits="userSpaceOnUse">
      <stop stop-color="#FFF8EE"/>
      <stop offset="1" stop-color="#F6DDB4"/>
    </linearGradient>
  </defs>
  <rect x="10" y="10" width="236" height="236" rx="58" fill="url(#dotfuel-bg)"/>
  <rect x="18" y="18" width="220" height="220" rx="50" stroke="#FFF7EB" stroke-opacity="0.28" stroke-width="4"/>
  <circle cx="186" cy="72" r="44" fill="url(#dotfuel-glow)"/>
  <path d="M70 170C70 139.161 87.6062 112.613 123.27 77.9858C125.946 75.3871 130.054 75.3871 132.73 77.9858C168.394 112.613 186 139.161 186 170C186 205.346 160.642 230 128 230C95.3579 230 70 205.346 70 170Z" fill="url(#dotfuel-core)"/>
  <path d="M146 91L118 140H141L114 190" stroke="#7B2E18" stroke-width="18" stroke-linecap="round" stroke-linejoin="round"/>
  <path d="M161 102C168.291 113.239 172 125.976 172 138C172 166.719 151.405 190 125.999 190C116.946 190 108.503 187.043 101.497 181.949" stroke="#0D7B5C" stroke-width="10" stroke-linecap="round"/>
  <rect x="79" y="198" width="98" height="10" rx="5" fill="#F7E3C4" fill-opacity="0.44"/>
</svg>
